<svg width="574" height="564" viewBox="0 0 574 564" fill="none" xmlns="http://www.w3.org/2000/svg">
<path d="M255.352 32.0334C275.157 22.4955 298.229 22.4954 318.035 32.0334L470.064 105.247C489.87 114.785 504.255 132.823 509.146 154.255L546.694 318.764C551.586 340.196 546.452 362.688 532.746 379.875L427.539 511.802C413.833 528.989 393.046 538.999 371.063 538.999H202.323C180.34 538.999 159.554 528.989 145.848 511.802L40.6396 379.875C26.9338 362.688 21.7998 340.195 26.6914 318.764L64.2402 154.255C69.1319 132.823 83.5164 114.785 103.322 105.247L255.352 32.0334Z" fill="#FFF3EB" stroke="#191919" stroke-width="28"/>
<path d="M244.557 9.61739C271.184 -3.20576 302.203 -3.20583 328.83 9.61739L480.859 82.8313C507.487 95.6546 526.827 119.905 533.403 148.719L570.951 313.228C577.528 342.041 570.625 372.281 552.198 395.388L446.991 527.314C428.564 550.42 400.618 563.879 371.064 563.879H202.323C172.769 563.879 144.823 550.421 126.396 527.315L21.1886 395.388C2.76167 372.281 -4.14077 342.041 2.43568 313.228L39.9835 148.719C46.56 119.905 65.8997 95.6545 92.5275 82.8313L244.557 9.61739ZM319.389 29.2229C298.727 19.2729 274.66 19.2729 253.998 29.2229L101.969 102.436C81.3075 112.386 66.3013 131.203 61.1984 153.561L23.6505 318.07C18.5476 340.427 23.9032 363.891 38.2013 381.821L143.408 513.747C157.706 531.676 179.391 542.118 202.323 542.118H371.064C393.996 542.118 415.68 531.676 429.978 513.747L535.186 381.821C549.484 363.891 554.839 340.427 549.736 318.07L512.189 153.561C507.086 131.203 492.079 112.386 471.418 102.436L319.389 29.2229Z" fill="#191919"/>
<path d="M226.613 158.507C240.5 158.193 266.869 160.413 304.487 164.772C342.207 169.144 370.167 174.213 386.41 180.542L387.167 180.837L387.894 181.201C395.273 184.896 400.569 190.839 403.713 198.064C406.916 204.337 408.448 211.341 407.594 218.717C406.503 228.13 402.824 236.967 397.489 245.126L397.181 245.599L396.842 246.051C387.279 258.803 375.097 271.246 360.542 283.433C346.41 295.265 328.668 308.999 307.396 324.609L300.318 329.898C295.421 333.566 291.21 336.739 287.681 339.418C293.611 339.771 302.281 339.628 314.085 338.77C328.162 337.614 339.821 337.276 348.12 338.238C355.337 339.075 362.795 341.074 370.393 343.937H370.392C378.481 346.898 386.001 350.799 392.891 355.662C399.866 360.051 403.983 366.698 406.374 373.177C408.721 379.113 410.011 385.664 409.219 392.496C408.245 400.898 404.453 408.48 399.674 415.065C394.39 422.347 385.095 430.659 371.788 429.117C366.307 428.482 360.193 426.816 353.831 424.625C344.925 421.891 340.014 420.771 338.063 420.545C326.85 419.245 311.465 418.28 291.718 417.699L291.62 417.697L291.522 417.692C263.947 416.575 243.167 415.247 229.524 413.666C212.012 411.637 196.654 407.684 184.682 400.825L184.58 400.767L184.479 400.708C177.419 396.537 171.623 390.617 168.097 382.826C164.633 375.173 163.923 366.969 164.847 358.994C166.489 344.823 174.993 332.138 185.939 321.041C196.327 310.213 208.562 299.252 222.562 288.146L230.392 281.489L230.622 281.294L230.858 281.106C237.56 275.797 248.217 268.352 262.436 258.943C270.799 253.224 277.931 248.254 283.861 244.024L240.518 239.276L240.463 239.271L240.409 239.265C226.375 237.638 213.512 234.603 204.028 228.687L203.87 228.588L203.714 228.486C190.929 220.128 187.177 206.55 188.707 193.351C189.775 184.138 194.101 176.329 200.465 170.188C207.326 163.251 216.002 159.231 225.785 158.545L226.199 158.516L226.613 158.507Z" fill="white" stroke="#191919" stroke-width="35.047"/>
</svg>
