<svg width="738" height="738" viewBox="0 0 738 738" fill="none" xmlns="http://www.w3.org/2000/svg">
<g clip-path="url(#clip0_1_33)">
<path d="M325.765 58.2359C353.087 45.0785 384.913 45.0785 412.235 58.2359L587.907 142.835C615.229 155.993 635.072 180.876 641.82 210.44L685.208 400.533C691.956 430.098 684.874 461.126 665.967 484.835L544.397 637.278C525.49 660.987 496.816 674.796 466.491 674.796H271.509C241.184 674.796 212.51 660.987 193.603 637.278L72.0335 484.835C53.1263 461.126 46.0443 430.098 52.7922 400.533L96.1797 210.44C102.928 180.876 122.771 155.993 150.093 142.835L325.765 58.2359Z" fill="#FFF3EB"/>
<path d="M219.812 156.24L390.03 48.4722H344.421L133.159 149.738L101.732 189.895L50.2255 415.998L58.0824 466.631L207.077 657.072L285.091 681.926L163.789 464.067C152.431 443.667 147.747 420.221 150.397 397.023L168.56 237.98C172.397 204.382 191.241 174.329 219.812 156.24Z" fill="#581A00" fill-opacity="0.1"/>
<path d="M325.765 58.2359C353.087 45.0785 384.913 45.0785 412.235 58.2359L587.907 142.835C615.229 155.993 635.072 180.876 641.82 210.44L685.208 400.533C691.956 430.098 684.874 461.126 665.967 484.835L544.397 637.278C525.49 660.987 496.816 674.796 466.491 674.796H271.509C241.184 674.796 212.51 660.987 193.603 637.278L72.0335 484.835C53.1263 461.126 46.0443 430.098 52.7922 400.533L96.1797 210.44C102.928 180.876 122.771 155.993 150.093 142.835L325.765 58.2359Z" stroke="#1A1A1A" stroke-width="25.1444"/>
<ellipse cx="501.821" cy="434.487" rx="34.0832" ry="22.0294" fill="#FFC4FB"/>
<ellipse cx="236.179" cy="434.487" rx="34.0832" ry="22.0294" fill="#FFC4FB"/>
<path d="M318.327 468.717C334.367 484.764 352.595 485.767 369 468.717" stroke="#1A1A1A" stroke-width="25.1444" stroke-linecap="round"/>
<path d="M369 468.717C385.041 484.764 403.268 485.767 419.674 468.717" stroke="#1A1A1A" stroke-width="25.1444" stroke-linecap="round"/>
<path d="M225.874 400.109C250.749 416.071 279.016 417.068 304.457 400.109" stroke="#1A1A1A" stroke-width="25.1444" stroke-linecap="round"/>
<path d="M435.29 400.109C460.165 416.071 488.432 417.068 513.872 400.109" stroke="#1A1A1A" stroke-width="25.1444" stroke-linecap="round"/>
<mask id="path-10-outside-1_1_33" maskUnits="userSpaceOnUse" x="537.559" y="103.581" width="165.853" height="171.122" fill="black">
<rect fill="white" x="537.559" y="103.581" width="165.853" height="171.122"/>
<path d="M666.122 158.829C661.596 164.865 655.7 170.924 648.434 177.007C641.169 183.09 631.959 190.223 620.805 198.407C610.233 206.294 604.334 210.804 603.109 211.937L592.97 219.236C596.483 220.372 603.184 221.513 613.074 222.66C617.03 223.118 622.868 223.066 630.587 222.502C637.947 221.897 643.335 221.793 646.752 222.189C649.629 222.522 652.813 223.347 656.306 224.663C659.978 226 663.328 227.755 666.356 229.928C667.891 230.835 669.073 232.43 669.902 234.713C670.752 236.816 671.072 238.766 670.864 240.564C670.593 242.902 669.482 245.416 667.53 248.105C665.578 250.795 663.523 252.015 661.365 251.765C659.387 251.535 656.822 250.874 653.668 249.779C648.917 248.317 645.553 247.472 643.575 247.243C637.281 246.513 628.867 245.994 618.333 245.684C603.823 245.096 593.151 244.406 586.317 243.614C577.686 242.614 570.978 240.743 566.193 238.001C561.588 235.281 559.629 230.954 560.317 225.02C560.838 220.524 563.68 215.66 568.842 210.426C574.025 205.013 580.229 199.445 587.452 193.722L591.698 190.113C594.908 187.57 600.264 183.817 607.764 178.854C615.285 173.712 621.041 169.641 625.034 166.641C629.047 163.461 632.451 160.029 635.248 156.344L592.059 151.612C585.046 150.799 579.925 149.386 576.696 147.372C573.647 145.378 572.383 142.133 572.904 137.638C573.195 135.12 574.366 132.887 576.414 130.938C578.483 128.808 580.987 127.641 583.927 127.435C590.505 127.286 603.774 128.368 623.734 130.681C643.694 132.994 657.336 135.577 664.659 138.431C666.554 139.379 667.926 140.905 668.776 143.008C669.826 144.952 670.236 146.913 670.007 148.891C669.632 152.128 668.337 155.441 666.122 158.829Z"/>
</mask>
<path d="M666.122 158.829C661.596 164.865 655.7 170.924 648.434 177.007C641.169 183.09 631.959 190.223 620.805 198.407C610.233 206.294 604.334 210.804 603.109 211.937L592.97 219.236C596.483 220.372 603.184 221.513 613.074 222.66C617.03 223.118 622.868 223.066 630.587 222.502C637.947 221.897 643.335 221.793 646.752 222.189C649.629 222.522 652.813 223.347 656.306 224.663C659.978 226 663.328 227.755 666.356 229.928C667.891 230.835 669.073 232.43 669.902 234.713C670.752 236.816 671.072 238.766 670.864 240.564C670.593 242.902 669.482 245.416 667.53 248.105C665.578 250.795 663.523 252.015 661.365 251.765C659.387 251.535 656.822 250.874 653.668 249.779C648.917 248.317 645.553 247.472 643.575 247.243C637.281 246.513 628.867 245.994 618.333 245.684C603.823 245.096 593.151 244.406 586.317 243.614C577.686 242.614 570.978 240.743 566.193 238.001C561.588 235.281 559.629 230.954 560.317 225.02C560.838 220.524 563.68 215.66 568.842 210.426C574.025 205.013 580.229 199.445 587.452 193.722L591.698 190.113C594.908 187.57 600.264 183.817 607.764 178.854C615.285 173.712 621.041 169.641 625.034 166.641C629.047 163.461 632.451 160.029 635.248 156.344L592.059 151.612C585.046 150.799 579.925 149.386 576.696 147.372C573.647 145.378 572.383 142.133 572.904 137.638C573.195 135.12 574.366 132.887 576.414 130.938C578.483 128.808 580.987 127.641 583.927 127.435C590.505 127.286 603.774 128.368 623.734 130.681C643.694 132.994 657.336 135.577 664.659 138.431C666.554 139.379 667.926 140.905 668.776 143.008C669.826 144.952 670.236 146.913 670.007 148.891C669.632 152.128 668.337 155.441 666.122 158.829Z" fill="white"/>
<path d="M666.122 158.829L680.913 169.921L681.271 169.444L681.597 168.945L666.122 158.829ZM648.434 177.007L636.566 162.831L636.566 162.831L648.434 177.007ZM620.805 198.407L609.868 183.501L609.809 183.544L609.751 183.588L620.805 198.407ZM603.109 211.937L613.91 226.943L614.834 226.278L615.668 225.505L603.109 211.937ZM592.97 219.236L582.169 204.231L552.507 225.582L587.281 236.828L592.97 219.236ZM630.587 222.502L631.933 240.942L632.018 240.935L632.102 240.929L630.587 222.502ZM656.306 224.663L649.787 241.964L649.884 242L649.981 242.036L656.306 224.663ZM666.356 229.928L655.577 244.949L656.245 245.428L656.952 245.846L666.356 229.928ZM669.902 234.713L652.524 241.022L652.636 241.332L652.76 241.638L669.902 234.713ZM653.668 249.779L659.73 232.313L659.419 232.205L659.105 232.108L653.668 249.779ZM618.333 245.684L617.585 264.157L617.687 264.161L617.79 264.164L618.333 245.684ZM566.193 238.001L556.789 253.92L556.895 253.982L557.002 254.043L566.193 238.001ZM568.842 210.426L582.004 223.41L582.1 223.312L582.196 223.213L568.842 210.426ZM587.452 193.722L598.934 208.213L599.184 208.015L599.426 207.809L587.452 193.722ZM591.698 190.113L580.216 175.622L579.967 175.82L579.724 176.026L591.698 190.113ZM607.764 178.854L617.965 194.273L618.083 194.195L618.199 194.116L607.764 178.854ZM625.034 166.641L636.14 181.422L636.329 181.28L636.515 181.132L625.034 166.641ZM635.248 156.344L649.976 167.519L669.703 141.52L637.261 137.966L635.248 156.344ZM592.059 151.612L589.931 169.978L589.988 169.984L590.046 169.99L592.059 151.612ZM576.696 147.372L566.579 162.846L566.744 162.954L566.911 163.058L576.696 147.372ZM576.414 130.938L589.16 144.33L589.421 144.081L589.673 143.822L576.414 130.938ZM583.927 127.435L583.509 108.951L583.071 108.961L582.634 108.992L583.927 127.435ZM664.659 138.431L672.935 121.898L672.169 121.515L671.371 121.204L664.659 138.431ZM668.776 143.008L651.634 149.934L652.02 150.89L652.51 151.796L668.776 143.008ZM666.122 158.829L651.331 147.736C647.841 152.39 643.005 157.439 636.566 162.831L648.434 177.007L660.303 191.183C668.394 184.409 675.35 177.339 680.913 169.921L666.122 158.829ZM648.434 177.007L636.566 162.831C629.705 168.575 620.834 175.455 609.868 183.501L620.805 198.407L631.743 213.313C643.084 204.992 652.632 197.605 660.303 191.183L648.434 177.007ZM620.805 198.407L609.751 183.588C599.782 191.024 592.71 196.371 590.551 198.369L603.109 211.937L615.668 225.505C615.487 225.673 616.425 224.882 619.682 222.392C622.545 220.202 626.595 217.154 631.86 213.226L620.805 198.407ZM603.109 211.937L592.309 196.932L582.169 204.231L592.97 219.236L603.771 234.241L613.91 226.943L603.109 211.937ZM592.97 219.236L587.281 236.828C592.777 238.605 601.22 239.898 610.946 241.025L613.074 222.66L615.203 204.294C605.149 203.129 600.188 202.14 598.658 201.645L592.97 219.236ZM613.074 222.66L610.946 241.025C616.68 241.689 623.922 241.526 631.933 240.942L630.587 222.502L629.242 204.063C621.814 204.605 617.381 204.547 615.203 204.294L613.074 222.66ZM630.587 222.502L632.102 240.929C639.301 240.337 643.142 240.383 644.623 240.554L646.752 222.189L648.88 203.823C643.528 203.203 636.593 203.458 629.073 204.076L630.587 222.502ZM646.752 222.189L644.623 240.554C645.64 240.672 647.326 241.036 649.787 241.964L656.306 224.663L662.825 207.362C658.301 205.658 653.617 204.373 648.88 203.823L646.752 222.189ZM656.306 224.663L649.981 242.036C652.145 242.823 653.984 243.805 655.577 244.949L666.356 229.928L677.136 214.907C672.672 211.704 667.811 209.176 662.63 207.29L656.306 224.663ZM666.356 229.928L656.952 245.846C653.652 243.896 652.63 241.314 652.524 241.022L669.902 234.713L687.28 228.403C685.517 223.545 682.131 217.773 675.76 214.01L666.356 229.928ZM669.902 234.713L652.76 241.638C652.739 241.586 652.272 240.393 652.499 238.436L670.864 240.564L689.229 242.693C689.873 237.139 688.765 232.045 687.044 227.787L669.902 234.713ZM670.864 240.564L652.499 238.436C652.61 237.48 652.845 236.891 652.918 236.727C652.986 236.573 652.93 236.746 652.567 237.246L667.53 248.105L682.493 258.964C685.584 254.706 688.473 249.22 689.229 242.693L670.864 240.564ZM667.53 248.105L652.567 237.246C652.584 237.223 652.763 236.978 653.135 236.614C653.509 236.249 654.149 235.696 655.088 235.139C657.173 233.901 660.146 233.011 663.494 233.399L661.365 251.765L659.237 270.13C671.119 271.507 678.87 263.957 682.493 258.964L667.53 248.105ZM661.365 251.765L663.494 233.399C663.566 233.408 663.29 233.378 662.575 233.194C661.885 233.016 660.947 232.735 659.73 232.313L653.668 249.779L647.607 267.245C651.303 268.528 655.322 269.676 659.237 270.13L661.365 251.765ZM653.668 249.779L659.105 232.108C654.403 230.661 649.562 229.324 645.703 228.877L643.575 247.243L641.446 265.608C641.258 265.586 641.693 265.632 643.076 265.979C644.344 266.298 646.044 266.777 648.231 267.45L653.668 249.779ZM643.575 247.243L645.703 228.877C638.653 228.06 629.643 227.52 618.877 227.204L618.333 245.684L617.79 264.164C628.091 264.467 635.909 264.966 641.446 265.608L643.575 247.243ZM618.333 245.684L619.082 227.211C604.644 226.626 594.552 225.956 588.446 225.249L586.317 243.614L584.189 261.979C591.75 262.856 603.001 263.566 617.585 264.157L618.333 245.684ZM586.317 243.614L588.446 225.249C581.028 224.389 577.107 222.947 575.384 221.959L566.193 238.001L557.002 254.043C564.849 258.539 574.344 260.838 584.189 261.979L586.317 243.614ZM566.193 238.001L575.597 222.083C576.139 222.404 577.331 223.363 578.113 225.092C578.83 226.675 578.626 227.635 578.682 227.148L560.317 225.02L541.951 222.891C541.32 228.338 541.751 234.429 544.427 240.339C547.168 246.395 551.642 250.879 556.789 253.92L566.193 238.001ZM560.317 225.02L578.682 227.148C578.586 227.98 578.365 228.075 578.803 227.325C579.251 226.557 580.197 225.242 582.004 223.41L568.842 210.426L555.68 197.443C549.293 203.917 543.163 212.435 541.951 222.891L560.317 225.02ZM568.842 210.426L582.196 223.213C586.68 218.53 592.228 213.526 598.934 208.213L587.452 193.722L575.971 179.23C568.229 185.364 561.371 191.497 555.488 197.64L568.842 210.426ZM587.452 193.722L599.426 207.809L603.671 204.2L591.698 190.113L579.724 176.026L575.479 179.635L587.452 193.722ZM591.698 190.113L603.179 204.605C605.725 202.587 610.514 199.203 617.965 194.273L607.764 178.854L597.562 163.435C590.013 168.43 584.092 172.552 580.216 175.622L591.698 190.113ZM607.764 178.854L618.199 194.116C625.795 188.923 631.817 184.67 636.14 181.422L625.034 166.641L613.927 151.86C610.265 154.612 604.774 158.501 597.329 163.592L607.764 178.854ZM625.034 166.641L636.515 181.132C641.617 177.09 646.147 172.566 649.976 167.519L635.248 156.344L620.519 145.169C618.756 147.493 616.476 149.833 613.552 152.15L625.034 166.641ZM635.248 156.344L637.261 137.966L594.073 133.234L592.059 151.612L590.046 169.99L633.234 174.722L635.248 156.344ZM592.059 151.612L594.188 133.247C591.338 132.917 589.282 132.508 587.878 132.121C586.41 131.715 586.12 131.46 586.482 131.685L576.696 147.372L566.911 163.058C573.687 167.285 582.137 169.074 589.931 169.978L592.059 151.612ZM576.696 147.372L586.813 131.897C588.355 132.905 589.854 134.59 590.688 136.731C591.43 138.634 591.255 139.888 591.269 139.766L572.904 137.638L554.538 135.51C553.445 144.94 556.14 156.021 566.579 162.846L576.696 147.372ZM572.904 137.638L591.269 139.766C591.155 140.75 590.851 141.75 590.377 142.654C589.917 143.533 589.425 144.077 589.16 144.33L576.414 130.938L563.668 117.545C558.873 122.109 555.386 128.194 554.538 135.51L572.904 137.638ZM576.414 130.938L589.673 143.822C589.26 144.247 588.587 144.787 587.657 145.221C586.724 145.656 585.857 145.833 585.22 145.878L583.927 127.435L582.634 108.992C575.12 109.518 568.367 112.689 563.155 118.053L576.414 130.938ZM583.927 127.435L584.345 145.918C589.427 145.803 601.414 146.706 621.605 149.046L623.734 130.681L625.862 112.316C606.133 110.029 591.583 108.768 583.509 108.951L583.927 127.435ZM623.734 130.681L621.605 149.046C641.689 151.374 653.115 153.775 657.947 155.658L664.659 138.431L671.371 121.204C661.557 117.38 645.699 114.615 625.862 112.316L623.734 130.681ZM664.659 138.431L656.383 154.963C655.33 154.436 654.273 153.662 653.362 152.649C652.465 151.652 651.931 150.669 651.634 149.934L668.776 143.008L685.918 136.082C683.51 130.124 679.155 125.012 672.935 121.898L664.659 138.431ZM668.776 143.008L652.51 151.796C652.273 151.359 651.971 150.66 651.775 149.726C651.576 148.773 651.526 147.76 651.642 146.763L670.007 148.891L688.373 151.02C689.086 144.864 687.688 139.119 685.042 134.22L668.776 143.008ZM670.007 148.891L651.642 146.763C651.668 146.542 651.664 147.156 650.647 148.712L666.122 158.829L681.597 168.945C685.01 163.725 687.597 157.714 688.373 151.02L670.007 148.891Z" fill="#191919" mask="url(#path-10-outside-1_1_33)"/>
<mask id="path-12-outside-2_1_33" maskUnits="userSpaceOnUse" x="419.445" y="173.491" width="135.317" height="137.926" fill="black">
<rect fill="white" x="419.445" y="173.491" width="135.317" height="137.926"/>
<path d="M514.834 212.668C512.621 217.832 509.421 223.254 505.234 228.933C501.047 234.613 495.639 241.395 489.008 249.279C482.746 256.846 479.271 261.148 478.584 262.183L472.532 269.249C475.273 269.453 480.323 269.099 487.681 268.188C490.625 267.824 494.839 266.759 500.326 264.993C505.544 263.26 509.425 262.237 511.967 261.922C514.107 261.657 516.557 261.693 519.315 262.031C522.207 262.352 524.94 263.033 527.514 264.072C528.784 264.458 529.92 265.405 530.921 266.911C531.906 268.283 532.482 269.638 532.647 270.976C532.862 272.715 532.501 274.729 531.561 277.019C530.622 279.308 529.35 280.552 527.745 280.751C526.273 280.933 524.3 280.906 521.826 280.669C518.131 280.447 515.548 280.427 514.076 280.609C509.394 281.189 503.214 282.294 495.538 283.923C484.935 286.051 477.091 287.429 472.008 288.059C465.586 288.853 460.403 288.68 456.458 287.538C452.648 286.38 450.469 283.594 449.922 279.179C449.508 275.834 450.709 271.815 453.523 267.12C456.321 262.291 459.83 257.17 464.05 251.758L466.487 248.4C468.362 245.994 471.577 242.337 476.131 237.426C480.668 232.382 484.117 228.423 486.478 225.55C488.822 222.544 490.682 219.461 492.057 216.302L459.974 220.478C454.757 221.124 450.802 221.002 448.112 220.113C445.554 219.207 444.069 217.081 443.655 213.737C443.423 211.864 443.877 210.042 445.016 208.271C446.138 206.366 447.745 205.081 449.836 204.414C454.569 203.149 464.361 201.597 479.21 199.759C494.06 197.921 504.385 197.39 510.186 198.166C511.724 198.519 512.986 199.381 513.97 200.754C515.073 201.975 515.715 203.322 515.897 204.794C516.195 207.202 515.841 209.827 514.834 212.668Z"/>
</mask>
<path d="M514.834 212.668C512.621 217.832 509.421 223.254 505.234 228.933C501.047 234.613 495.639 241.395 489.008 249.279C482.746 256.846 479.271 261.148 478.584 262.183L472.532 269.249C475.273 269.453 480.323 269.099 487.681 268.188C490.625 267.824 494.839 266.759 500.326 264.993C505.544 263.26 509.425 262.237 511.967 261.922C514.107 261.657 516.557 261.693 519.315 262.031C522.207 262.352 524.94 263.033 527.514 264.072C528.784 264.458 529.92 265.405 530.921 266.911C531.906 268.283 532.482 269.638 532.647 270.976C532.862 272.715 532.501 274.729 531.561 277.019C530.622 279.308 529.35 280.552 527.745 280.751C526.273 280.933 524.3 280.906 521.826 280.669C518.131 280.447 515.548 280.427 514.076 280.609C509.394 281.189 503.214 282.294 495.538 283.923C484.935 286.051 477.091 287.429 472.008 288.059C465.586 288.853 460.403 288.68 456.458 287.538C452.648 286.38 450.469 283.594 449.922 279.179C449.508 275.834 450.709 271.815 453.523 267.12C456.321 262.291 459.83 257.17 464.05 251.758L466.487 248.4C468.362 245.994 471.577 242.337 476.131 237.426C480.668 232.382 484.117 228.423 486.478 225.55C488.822 222.544 490.682 219.461 492.057 216.302L459.974 220.478C454.757 221.124 450.802 221.002 448.112 220.113C445.554 219.207 444.069 217.081 443.655 213.737C443.423 211.864 443.877 210.042 445.016 208.271C446.138 206.366 447.745 205.081 449.836 204.414C454.569 203.149 464.361 201.597 479.21 199.759C494.06 197.921 504.385 197.39 510.186 198.166C511.724 198.519 512.986 199.381 513.97 200.754C515.073 201.975 515.715 203.322 515.897 204.794C516.195 207.202 515.841 209.827 514.834 212.668Z" fill="white"/>
<path d="M514.834 212.668L531.827 219.951L532.062 219.403L532.261 218.842L514.834 212.668ZM505.234 228.933L490.352 217.964L490.352 217.964L505.234 228.933ZM489.008 249.279L474.859 237.38L474.811 237.435L474.765 237.492L489.008 249.279ZM478.584 262.183L492.625 274.212L493.365 273.348L493.994 272.4L478.584 262.183ZM472.532 269.249L458.491 257.221L434.714 284.976L471.16 287.686L472.532 269.249ZM500.326 264.993L505.99 282.592L506.071 282.566L506.151 282.54L500.326 264.993ZM519.315 262.031L517.068 280.382L517.172 280.395L517.275 280.407L519.315 262.031ZM527.514 264.072L520.589 281.215L521.351 281.523L522.138 281.762L527.514 264.072ZM530.921 266.911L515.526 277.148L515.709 277.423L515.901 277.691L530.921 266.911ZM521.826 280.669L523.589 262.265L523.262 262.233L522.934 262.214L521.826 280.669ZM495.538 283.923L499.175 302.05L499.276 302.03L499.377 302.008L495.538 283.923ZM456.458 287.538L451.082 305.228L451.2 305.264L451.318 305.298L456.458 287.538ZM453.523 267.12L469.38 276.626L469.451 276.508L469.52 276.389L453.523 267.12ZM464.05 251.758L478.63 263.126L478.826 262.875L479.014 262.617L464.05 251.758ZM466.487 248.4L451.907 237.032L451.711 237.283L451.524 237.541L466.487 248.4ZM476.131 237.426L489.687 249.998L489.783 249.895L489.876 249.79L476.131 237.426ZM486.478 225.55L500.762 237.288L500.913 237.105L501.058 236.918L486.478 225.55ZM492.057 216.302L509.009 223.681L522.034 193.757L489.671 197.969L492.057 216.302ZM459.974 220.478L462.246 238.826L462.303 238.819L462.36 238.811L459.974 220.478ZM448.112 220.113L441.938 237.539L442.123 237.605L442.31 237.667L448.112 220.113ZM445.016 208.271L460.565 218.272L460.761 217.969L460.944 217.658L445.016 208.271ZM449.836 204.414L445.062 186.553L444.639 186.666L444.222 186.799L449.836 204.414ZM510.186 198.166L514.322 180.146L513.487 179.954L512.638 179.841L510.186 198.166ZM513.97 200.754L498.95 211.534L499.551 212.371L500.242 213.136L513.97 200.754ZM514.834 212.668L497.841 205.385C496.308 208.96 493.9 213.15 490.352 217.964L505.234 228.933L520.116 239.903C524.942 233.357 528.933 226.703 531.827 219.951L514.834 212.668ZM505.234 228.933L490.352 217.964C486.479 223.218 481.339 229.674 474.859 237.38L489.008 249.279L503.158 261.179C509.938 253.117 515.616 246.009 520.116 239.903L505.234 228.933ZM489.008 249.279L474.765 237.492C468.983 244.478 464.566 249.87 463.175 251.967L478.584 262.183L493.994 272.4C493.718 272.816 493.641 272.882 494.202 272.162C494.63 271.614 495.25 270.835 496.087 269.798C497.757 267.732 500.137 264.83 503.251 261.067L489.008 249.279ZM478.584 262.183L464.544 250.155L458.491 257.221L472.532 269.249L486.572 281.277L492.625 274.212L478.584 262.183ZM472.532 269.249L471.16 287.686C475.981 288.045 482.759 287.427 489.953 286.537L487.681 268.188L485.41 249.84C481.922 250.272 479.17 250.548 477.084 250.694C476.047 250.766 475.252 250.801 474.666 250.812C474.051 250.824 473.832 250.806 473.903 250.812L472.532 269.249ZM487.681 268.188L489.953 286.537C494.672 285.952 500.226 284.448 505.99 282.592L500.326 264.993L494.661 247.394C489.453 249.07 486.577 249.696 485.41 249.84L487.681 268.188ZM500.326 264.993L506.151 282.54C508.518 281.754 510.407 281.188 511.866 280.803C512.589 280.612 513.155 280.479 513.581 280.39C513.791 280.347 513.952 280.317 514.067 280.297C514.184 280.277 514.239 280.27 514.238 280.27L511.967 261.922L509.695 243.574C505.22 244.128 499.872 245.663 494.5 247.447L500.326 264.993ZM511.967 261.922L514.238 280.27C514.52 280.235 515.404 280.179 517.068 280.382L519.315 262.031L521.562 243.68C517.709 243.208 513.694 243.079 509.695 243.574L511.967 261.922ZM519.315 262.031L517.275 280.407C518.571 280.55 519.653 280.837 520.589 281.215L527.514 264.072L534.439 246.93C530.227 245.228 525.843 244.154 521.355 243.656L519.315 262.031ZM527.514 264.072L522.138 281.762C518.034 280.515 516.041 277.923 515.526 277.148L530.921 266.911L546.317 256.673C543.799 252.886 539.534 248.402 532.89 246.383L527.514 264.072ZM530.921 266.911L515.901 277.691C515.531 277.175 514.598 275.661 514.299 273.247L532.647 270.976L550.995 268.704C550.365 263.614 548.282 259.391 545.942 256.13L530.921 266.911ZM532.647 270.976L514.299 273.247C514.144 271.993 514.246 271.044 514.34 270.522C514.432 270.011 514.53 269.824 514.456 270.003L531.561 277.019L548.667 284.034C550.342 279.951 551.729 274.629 550.995 268.704L532.647 270.976ZM531.561 277.019L514.456 270.003C514.594 269.667 515.254 268.135 516.976 266.451C518.929 264.542 521.853 262.851 525.473 262.403L527.745 280.751L530.016 299.099C541.336 297.698 546.648 288.957 548.667 284.034L531.561 277.019ZM527.745 280.751L525.473 262.403C525.798 262.363 525.818 262.386 525.418 262.381C525.044 262.375 524.447 262.347 523.589 262.265L521.826 280.669L520.063 299.073C523.109 299.365 526.61 299.521 530.016 299.099L527.745 280.751ZM521.826 280.669L522.934 262.214C519.289 261.995 515.155 261.846 511.805 262.261L514.076 280.609L516.348 298.958C516.061 298.993 515.961 298.991 516.128 298.984C516.275 298.978 516.549 298.972 516.976 298.975C517.841 298.982 519.068 299.025 520.718 299.124L521.826 280.669ZM514.076 280.609L511.805 262.261C506.367 262.934 499.603 264.16 491.699 265.838L495.538 283.923L499.377 302.008C506.826 300.427 512.421 299.444 516.348 298.958L514.076 280.609ZM495.538 283.923L491.901 265.796C481.369 267.909 474.093 269.171 469.736 269.71L472.008 288.059L474.279 306.407C480.09 305.687 488.501 304.192 499.175 302.05L495.538 283.923ZM472.008 288.059L469.736 269.71C464.527 270.355 462.154 269.94 461.598 269.779L456.458 287.538L451.318 305.298C458.652 307.42 466.645 307.352 474.279 306.407L472.008 288.059ZM456.458 287.538L461.835 269.849C463.09 270.231 464.989 271.22 466.531 273.192C467.975 275.039 468.237 276.637 468.271 276.908L449.922 279.179L431.574 281.45C432.154 286.135 433.779 291.334 437.401 295.968C441.122 300.726 446.016 303.688 451.082 305.228L456.458 287.538ZM449.922 279.179L468.271 276.908C468.445 278.313 468.185 279.088 468.228 278.945C468.245 278.885 468.32 278.657 468.507 278.25C468.694 277.845 468.973 277.305 469.38 276.626L453.523 267.12L437.666 257.613C433.955 263.804 430.423 272.151 431.574 281.45L449.922 279.179ZM453.523 267.12L469.52 276.389C471.811 272.434 474.817 268.017 478.63 263.126L464.05 251.758L449.47 240.39C444.843 246.324 440.831 252.147 437.526 257.85L453.523 267.12ZM464.05 251.758L479.014 262.617L481.45 259.259L466.487 248.4L451.524 237.541L449.087 240.899L464.05 251.758ZM466.487 248.4L481.067 259.768C482.421 258.031 485.173 254.865 489.687 249.998L476.131 237.426L462.575 224.855C457.981 229.808 454.304 233.958 451.907 237.032L466.487 248.4ZM476.131 237.426L489.876 249.79C494.475 244.679 498.139 240.48 500.762 237.288L486.478 225.55L472.194 213.812C470.095 216.367 466.861 220.086 462.385 225.062L476.131 237.426ZM486.478 225.55L501.058 236.918C504.257 232.816 506.952 228.406 509.009 223.681L492.057 216.302L475.105 208.924C474.412 210.516 473.388 212.271 471.898 214.182L486.478 225.55ZM492.057 216.302L489.671 197.969L457.588 202.144L459.974 220.478L462.36 238.811L494.443 234.636L492.057 216.302ZM459.974 220.478L457.703 202.13C455.75 202.371 454.443 202.415 453.664 202.391C452.82 202.365 453.048 202.272 453.913 202.558L448.112 220.113L442.31 237.667C448.971 239.868 456.248 239.568 462.246 238.826L459.974 220.478ZM448.112 220.113L454.286 202.686C456.461 203.456 458.662 204.999 460.233 207.247C461.658 209.285 461.947 211.014 462.003 211.465L443.655 213.737L425.307 216.008C426.331 224.283 431.058 233.685 441.938 237.539L448.112 220.113ZM443.655 213.737L462.003 211.465C462.164 212.769 462.086 214.13 461.762 215.432C461.444 216.707 460.959 217.661 460.565 218.272L445.016 208.271L429.466 198.27C426.276 203.23 424.481 209.342 425.307 216.008L443.655 213.737ZM445.016 208.271L460.944 217.658C460.45 218.495 459.69 219.452 458.613 220.314C457.534 221.178 456.416 221.722 455.45 222.03L449.836 204.414L444.222 186.799C437.762 188.858 432.5 193.094 429.088 198.884L445.016 208.271ZM449.836 204.414L454.61 222.276C457.897 221.397 466.401 219.974 481.482 218.107L479.21 199.759L476.939 181.411C462.32 183.221 451.241 184.901 445.062 186.553L449.836 204.414ZM479.21 199.759L481.482 218.107C496.454 216.254 504.584 216.069 507.735 216.491L510.186 198.166L512.638 179.841C504.187 178.71 491.666 179.588 476.939 181.411L479.21 199.759ZM510.186 198.166L506.051 216.186C504.64 215.862 503.19 215.255 501.849 214.338C500.525 213.433 499.581 212.413 498.95 211.534L513.97 200.754L528.991 189.973C525.581 185.223 520.574 181.581 514.322 180.146L510.186 198.166ZM513.97 200.754L500.242 213.136C499.094 211.864 497.883 209.768 497.549 207.065L515.897 204.794L534.245 202.522C533.546 196.877 531.051 192.087 527.699 188.371L513.97 200.754ZM515.897 204.794L497.549 207.065C497.486 206.557 497.517 206.214 497.533 206.095C497.547 205.988 497.543 206.111 497.407 206.494L514.834 212.668L532.261 218.842C533.999 213.937 534.971 208.385 534.245 202.522L515.897 204.794Z" fill="#191919" mask="url(#path-12-outside-2_1_33)"/>
</g>
<defs>
<clipPath id="clip0_1_33">
<rect width="738" height="738" fill="white"/>
</clipPath>
</defs>
</svg>
