<svg width="738" height="738" viewBox="0 0 738 738" fill="none" xmlns="http://www.w3.org/2000/svg">
<path d="M331.584 96.8521C355.228 85.4655 382.771 85.4655 406.416 96.8521L558.445 170.066C582.09 181.452 599.263 202.986 605.102 228.572L642.65 393.081C648.49 418.666 642.361 445.519 625.999 466.037L520.791 597.963C504.429 618.481 479.613 630.431 453.37 630.431H284.63C258.387 630.431 233.571 618.481 217.209 597.963L112.001 466.037C95.6388 445.519 89.5099 418.666 95.3496 393.081L132.898 228.572C138.737 202.986 155.91 181.452 179.555 170.066L331.584 96.8521Z" fill="#FFF3EB"/>
<path d="M239.891 181.666L387.199 88.4024H347.729L164.9 176.039L137.702 210.792L93.1283 406.464L99.9278 450.282L228.869 615.093L296.384 636.602L191.408 448.064C181.578 430.409 177.525 410.119 179.818 390.043L195.537 252.405C198.857 223.329 215.165 197.32 239.891 181.666Z" fill="#581A00" fill-opacity="0.1"/>
<path d="M331.584 96.8521C355.228 85.4655 382.771 85.4655 406.416 96.8521L558.445 170.066C582.09 181.452 599.263 202.986 605.102 228.572L642.65 393.081C648.49 418.666 642.361 445.519 625.999 466.037L520.791 597.963C504.429 618.481 479.613 630.431 453.37 630.431H284.63C258.387 630.431 233.571 618.481 217.209 597.963L112.001 466.037C95.6388 445.519 89.5099 418.666 95.3496 393.081L132.898 228.572C138.737 202.986 155.91 181.452 179.555 170.066L331.584 96.8521Z" stroke="#1A1A1A" stroke-width="21.7603"/>
<ellipse cx="483.945" cy="422.464" rx="29.496" ry="19.0645" fill="#FFC4FB"/>
<ellipse cx="254.055" cy="422.464" rx="29.496" ry="19.0645" fill="#FFC4FB"/>
<path d="M325.147 452.088C339.028 465.975 354.803 466.843 369 452.088" stroke="#1A1A1A" stroke-width="21.7603" stroke-linecap="round"/>
<path d="M369 452.088C382.882 465.975 398.656 466.843 412.854 452.088" stroke="#1A1A1A" stroke-width="21.7603" stroke-linecap="round"/>
<path d="M245.137 392.714C266.664 406.527 291.127 407.39 313.143 392.714" stroke="#1A1A1A" stroke-width="21.7603" stroke-linecap="round"/>
<path d="M426.368 392.714C447.895 406.527 472.358 407.39 494.374 392.714" stroke="#1A1A1A" stroke-width="21.7603" stroke-linecap="round"/>
<mask id="path-10-outside-1_1_18" maskUnits="userSpaceOnUse" x="514.864" y="135.643" width="143.568" height="147.96" fill="black">
<rect fill="white" x="514.864" y="135.643" width="143.568" height="147.96"/>
<path d="M626.165 183.632C622.248 188.855 617.145 194.099 610.858 199.363C604.57 204.628 596.6 210.801 586.948 217.883C577.798 224.708 572.693 228.611 571.633 229.593L562.858 235.909C565.898 236.892 571.698 237.88 580.257 238.872C583.681 239.269 588.733 239.223 595.413 238.736C601.782 238.212 606.445 238.122 609.402 238.464C611.892 238.753 614.648 239.467 617.67 240.605C620.848 241.762 623.747 243.281 626.368 245.162C627.696 245.947 628.719 247.327 629.437 249.303C630.172 251.123 630.449 252.811 630.269 254.367C630.035 256.39 629.073 258.565 627.384 260.893C625.694 263.22 623.916 264.276 622.049 264.06C620.337 263.861 618.117 263.288 615.387 262.341C611.276 261.076 608.364 260.345 606.652 260.146C601.206 259.515 593.924 259.065 584.808 258.798C572.25 258.288 563.015 257.691 557.101 257.006C549.631 256.14 543.826 254.521 539.685 252.149C535.7 249.794 534.005 246.05 534.6 240.914C535.051 237.024 537.51 232.814 541.978 228.285C546.463 223.6 551.832 218.781 558.083 213.828L561.757 210.706C564.536 208.504 569.17 205.256 575.661 200.962C582.17 196.512 587.152 192.989 590.607 190.393C594.08 187.641 597.026 184.67 599.446 181.481L562.07 177.386C556.001 176.683 551.569 175.46 548.775 173.716C546.136 171.991 545.042 169.183 545.493 165.293C545.745 163.114 546.758 161.181 548.53 159.494C550.321 157.652 552.488 156.641 555.032 156.463C560.725 156.334 572.208 157.27 589.482 159.272C606.756 161.274 618.561 163.51 624.899 165.979C626.539 166.8 627.726 168.12 628.462 169.94C629.371 171.623 629.726 173.32 629.527 175.032C629.203 177.833 628.082 180.699 626.165 183.632Z"/>
</mask>
<path d="M626.165 183.632C622.248 188.855 617.145 194.099 610.858 199.363C604.57 204.628 596.6 210.801 586.948 217.883C577.798 224.708 572.693 228.611 571.633 229.593L562.858 235.909C565.898 236.892 571.698 237.88 580.257 238.872C583.681 239.269 588.733 239.223 595.413 238.736C601.782 238.212 606.445 238.122 609.402 238.464C611.892 238.753 614.648 239.467 617.67 240.605C620.848 241.762 623.747 243.281 626.368 245.162C627.696 245.947 628.719 247.327 629.437 249.303C630.172 251.123 630.449 252.811 630.269 254.367C630.035 256.39 629.073 258.565 627.384 260.893C625.694 263.22 623.916 264.276 622.049 264.06C620.337 263.861 618.117 263.288 615.387 262.341C611.276 261.076 608.364 260.345 606.652 260.146C601.206 259.515 593.924 259.065 584.808 258.798C572.25 258.288 563.015 257.691 557.101 257.006C549.631 256.14 543.826 254.521 539.685 252.149C535.7 249.794 534.005 246.05 534.6 240.914C535.051 237.024 537.51 232.814 541.978 228.285C546.463 223.6 551.832 218.781 558.083 213.828L561.757 210.706C564.536 208.504 569.17 205.256 575.661 200.962C582.17 196.512 587.152 192.989 590.607 190.393C594.08 187.641 597.026 184.67 599.446 181.481L562.07 177.386C556.001 176.683 551.569 175.46 548.775 173.716C546.136 171.991 545.042 169.183 545.493 165.293C545.745 163.114 546.758 161.181 548.53 159.494C550.321 157.652 552.488 156.641 555.032 156.463C560.725 156.334 572.208 157.27 589.482 159.272C606.756 161.274 618.561 163.51 624.899 165.979C626.539 166.8 627.726 168.12 628.462 169.94C629.371 171.623 629.726 173.32 629.527 175.032C629.203 177.833 628.082 180.699 626.165 183.632Z" fill="white"/>
<path d="M626.165 183.632L638.966 193.231L639.275 192.818L639.557 192.387L626.165 183.632ZM610.858 199.363L600.587 187.095L600.587 187.095L610.858 199.363ZM586.948 217.883L577.483 204.983L577.432 205.021L577.381 205.058L586.948 217.883ZM571.633 229.593L580.981 242.578L581.779 242.003L582.502 241.335L571.633 229.593ZM562.858 235.909L553.511 222.923L527.841 241.401L557.935 251.133L562.858 235.909ZM595.413 238.736L596.577 254.693L596.651 254.688L596.724 254.682L595.413 238.736ZM617.67 240.605L612.028 255.578L612.112 255.609L612.197 255.64L617.67 240.605ZM626.368 245.162L617.039 258.161L617.617 258.576L618.23 258.938L626.368 245.162ZM629.437 249.303L614.397 254.763L614.495 255.031L614.602 255.296L629.437 249.303ZM615.387 262.341L620.633 247.226L620.365 247.133L620.093 247.049L615.387 262.341ZM584.808 258.798L584.16 274.784L584.249 274.788L584.338 274.791L584.808 258.798ZM539.685 252.149L531.547 265.925L531.639 265.979L531.731 266.032L539.685 252.149ZM541.978 228.285L553.368 239.521L553.452 239.436L553.534 239.351L541.978 228.285ZM558.083 213.828L568.02 226.369L568.236 226.198L568.446 226.019L558.083 213.828ZM561.757 210.706L551.821 198.165L551.605 198.336L551.395 198.515L561.757 210.706ZM575.661 200.962L584.49 214.306L584.591 214.238L584.692 214.17L575.661 200.962ZM590.607 190.393L600.218 203.184L600.382 203.061L600.543 202.934L590.607 190.393ZM599.446 181.481L612.192 191.153L629.264 168.652L601.189 165.576L599.446 181.481ZM562.07 177.386L560.228 193.28L560.278 193.286L560.328 193.291L562.07 177.386ZM548.775 173.716L540.019 187.108L540.162 187.202L540.306 187.292L548.775 173.716ZM548.53 159.494L559.561 171.084L559.787 170.869L560.005 170.645L548.53 159.494ZM555.032 156.463L554.67 140.467L554.292 140.475L553.914 140.502L555.032 156.463ZM624.899 165.979L632.062 151.672L631.399 151.34L630.708 151.071L624.899 165.979ZM628.462 169.94L613.627 175.934L613.961 176.761L614.385 177.546L628.462 169.94ZM626.165 183.632L613.365 174.032C610.345 178.059 606.16 182.429 600.587 187.095L610.858 199.363L621.129 211.631C628.131 205.769 634.151 199.651 638.966 193.231L626.165 183.632ZM610.858 199.363L600.587 187.095C594.65 192.066 586.972 198.02 577.483 204.983L586.948 217.883L596.413 230.783C606.228 223.582 614.491 217.189 621.129 211.631L610.858 199.363ZM586.948 217.883L577.381 205.058C568.754 211.494 562.633 216.121 560.765 217.851L571.633 229.593L582.502 241.335C582.345 241.48 583.156 240.795 585.975 238.64C588.453 236.745 591.958 234.107 596.514 230.708L586.948 217.883ZM571.633 229.593L562.286 216.607L553.511 222.923L562.858 235.909L572.205 248.895L580.981 242.578L571.633 229.593ZM562.858 235.909L557.935 251.133C562.691 252.671 569.998 253.79 578.415 254.765L580.257 238.872L582.099 222.978C573.398 221.97 569.105 221.114 567.781 220.685L562.858 235.909ZM580.257 238.872L578.415 254.765C583.377 255.34 589.645 255.199 596.577 254.693L595.413 238.736L594.248 222.778C587.82 223.247 583.984 223.197 582.099 222.978L580.257 238.872ZM595.413 238.736L596.724 254.682C602.954 254.17 606.278 254.209 607.56 254.358L609.402 238.464L611.244 222.571C606.612 222.034 600.61 222.254 594.102 222.789L595.413 238.736ZM609.402 238.464L607.56 254.358C608.44 254.46 609.898 254.775 612.028 255.578L617.67 240.605L623.312 225.633C619.397 224.158 615.343 223.046 611.244 222.571L609.402 238.464ZM617.67 240.605L612.197 255.64C614.069 256.322 615.661 257.172 617.039 258.161L626.368 245.162L635.697 232.163C631.833 229.39 627.627 227.203 623.143 225.571L617.67 240.605ZM626.368 245.162L618.23 258.938C615.373 257.25 614.489 255.016 614.397 254.763L629.437 249.303L644.476 243.842C642.95 239.638 640.019 234.643 634.506 231.386L626.368 245.162ZM629.437 249.303L614.602 255.296C614.583 255.251 614.179 254.219 614.375 252.525L630.269 254.367L646.163 256.209C646.72 251.402 645.76 246.994 644.271 243.309L629.437 249.303ZM630.269 254.367L614.375 252.525C614.471 251.697 614.675 251.188 614.738 251.046C614.797 250.913 614.748 251.063 614.434 251.495L627.384 260.893L640.333 270.29C643.008 266.605 645.508 261.857 646.163 256.209L630.269 254.367ZM627.384 260.893L614.434 251.495C614.449 251.475 614.604 251.263 614.926 250.948C615.25 250.632 615.803 250.154 616.616 249.672C618.421 248.6 620.993 247.83 623.891 248.166L622.049 264.06L620.207 279.953C630.489 281.145 637.198 274.611 640.333 270.29L627.384 260.893ZM622.049 264.06L623.891 248.166C623.953 248.173 623.714 248.148 623.096 247.988C622.499 247.834 621.687 247.591 620.633 247.226L615.387 262.341L610.142 277.457C613.34 278.567 616.819 279.561 620.207 279.953L622.049 264.06ZM615.387 262.341L620.093 247.049C616.023 245.797 611.834 244.64 608.494 244.253L606.652 260.146L604.811 276.04C604.648 276.021 605.024 276.061 606.22 276.361C607.318 276.637 608.79 277.052 610.682 277.634L615.387 262.341ZM606.652 260.146L608.494 244.253C602.393 243.546 594.596 243.078 585.278 242.804L584.808 258.798L584.338 274.791C593.253 275.053 600.018 275.485 604.811 276.04L606.652 260.146ZM584.808 258.798L585.456 242.811C572.961 242.304 564.227 241.725 558.943 241.112L557.101 257.006L555.259 272.9C561.802 273.658 571.54 274.273 584.16 274.784L584.808 258.798ZM557.101 257.006L558.943 241.112C552.524 240.368 549.131 239.12 547.639 238.266L539.685 252.149L531.731 266.032C538.522 269.922 546.739 271.912 555.259 272.9L557.101 257.006ZM539.685 252.149L547.823 238.373C548.292 238.65 549.324 239.481 550.001 240.977C550.621 242.347 550.445 243.177 550.494 242.756L534.6 240.914L518.706 239.072C518.16 243.786 518.533 249.057 520.849 254.172C523.221 259.413 527.093 263.293 531.547 265.925L539.685 252.149ZM534.6 240.914L550.494 242.756C550.41 243.476 550.219 243.558 550.598 242.91C550.986 242.245 551.804 241.107 553.368 239.521L541.978 228.285L530.587 217.049C525.06 222.652 519.755 230.023 518.706 239.072L534.6 240.914ZM541.978 228.285L553.534 239.351C557.415 235.298 562.217 230.967 568.02 226.369L558.083 213.828L548.147 201.288C541.447 206.596 535.512 211.903 530.421 217.219L541.978 228.285ZM558.083 213.828L568.446 226.019L572.12 222.897L561.757 210.706L551.395 198.515L547.721 201.637L558.083 213.828ZM561.757 210.706L571.693 223.247C573.897 221.501 578.041 218.572 584.49 214.306L575.661 200.962L566.832 187.618C560.299 191.941 555.175 195.508 551.821 198.165L561.757 210.706ZM575.661 200.962L584.692 214.17C591.265 209.675 596.477 205.995 600.218 203.184L590.607 190.393L580.995 177.601C577.826 179.983 573.074 183.348 566.63 187.754L575.661 200.962ZM590.607 190.393L600.543 202.934C604.958 199.435 608.879 195.52 612.192 191.153L599.446 181.481L586.7 171.81C585.174 173.821 583.201 175.847 580.671 177.852L590.607 190.393ZM599.446 181.481L601.189 165.576L563.813 161.482L562.07 177.386L560.328 193.291L597.703 197.386L599.446 181.481ZM562.07 177.386L563.912 161.493C561.446 161.207 559.667 160.854 558.452 160.518C557.182 160.168 556.93 159.946 557.243 160.141L548.775 173.716L540.306 187.292C546.171 190.95 553.484 192.498 560.228 193.28L562.07 177.386ZM548.775 173.716L557.53 160.324C558.865 161.197 560.162 162.655 560.884 164.508C561.525 166.155 561.374 167.24 561.386 167.135L545.493 165.293L529.599 163.451C528.653 171.612 530.985 181.202 540.019 187.108L548.775 173.716ZM545.493 165.293L561.386 167.135C561.288 167.986 561.024 168.852 560.615 169.634C560.216 170.394 559.791 170.866 559.561 171.084L548.53 159.494L537.5 147.904C533.35 151.854 530.333 157.12 529.599 163.451L545.493 165.293ZM548.53 159.494L560.005 170.645C559.647 171.013 559.065 171.48 558.26 171.856C557.453 172.232 556.702 172.385 556.151 172.424L555.032 156.463L553.914 140.502C547.411 140.958 541.567 143.702 537.056 148.344L548.53 159.494ZM555.032 156.463L555.395 172.459C559.792 172.359 570.166 173.141 587.64 175.166L589.482 159.272L591.324 143.379C574.25 141.4 561.658 140.309 554.67 140.467L555.032 156.463ZM589.482 159.272L587.64 175.166C605.02 177.18 614.909 179.258 619.09 180.887L624.899 165.979L630.708 151.071C622.214 147.761 608.491 145.368 591.324 143.379L589.482 159.272ZM624.899 165.979L617.737 180.286C616.826 179.83 615.911 179.161 615.123 178.284C614.346 177.42 613.884 176.57 613.627 175.934L628.462 169.94L643.297 163.947C641.213 158.79 637.444 154.366 632.062 151.672L624.899 165.979ZM628.462 169.94L614.385 177.546C614.18 177.167 613.919 176.563 613.749 175.754C613.577 174.93 613.534 174.053 613.634 173.19L629.527 175.032L645.421 176.874C646.038 171.546 644.829 166.575 642.538 162.335L628.462 169.94ZM629.527 175.032L613.634 173.19C613.656 172.998 613.653 173.53 612.773 174.876L626.165 183.632L639.557 192.387C642.511 187.869 644.75 182.667 645.421 176.874L629.527 175.032Z" fill="#191919" mask="url(#path-10-outside-1_1_18)"/>
<mask id="path-12-outside-2_1_18" maskUnits="userSpaceOnUse" x="412.143" y="196.331" width="117.473" height="120.082" fill="black">
<rect fill="white" x="412.143" y="196.331" width="117.473" height="120.082"/>
<path d="M495.187 230.341C493.272 234.81 490.503 239.502 486.879 244.418C483.256 249.333 478.575 255.203 472.837 262.026C467.417 268.574 464.41 272.296 463.816 273.193L458.578 279.307C460.951 279.484 465.321 279.178 471.689 278.39C474.236 278.074 477.883 277.153 482.631 275.624C487.148 274.125 490.506 273.239 492.706 272.967C494.558 272.737 496.678 272.769 499.065 273.061C501.568 273.339 503.933 273.928 506.16 274.828C507.26 275.162 508.243 275.98 509.109 277.284C509.962 278.471 510.459 279.644 510.603 280.802C510.789 282.307 510.476 284.05 509.663 286.031C508.851 288.013 507.75 289.09 506.36 289.262C505.087 289.419 503.379 289.395 501.238 289.19C498.04 288.998 495.805 288.981 494.531 289.139C490.479 289.641 485.131 290.597 478.488 292.007C469.312 293.848 462.524 295.041 458.125 295.585C452.567 296.273 448.082 296.123 444.668 295.135C441.37 294.133 439.485 291.722 439.012 287.901C438.653 285.007 439.692 281.528 442.128 277.465C444.549 273.286 447.586 268.854 451.238 264.17L453.347 261.264C454.97 259.183 457.752 256.017 461.693 251.768C465.619 247.402 468.604 243.977 470.647 241.49C472.676 238.888 474.286 236.22 475.475 233.487L447.711 237.1C443.195 237.659 439.773 237.554 437.445 236.784C435.232 236 433.946 234.161 433.588 231.267C433.387 229.646 433.78 228.069 434.765 226.536C435.737 224.888 437.127 223.775 438.937 223.199C443.033 222.104 451.507 220.761 464.358 219.17C477.209 217.579 486.145 217.12 491.165 217.791C492.496 218.097 493.587 218.843 494.44 220.031C495.394 221.088 495.949 222.254 496.107 223.527C496.365 225.611 496.058 227.882 495.187 230.341Z"/>
</mask>
<path d="M495.187 230.341C493.272 234.81 490.503 239.502 486.879 244.418C483.256 249.333 478.575 255.203 472.837 262.026C467.417 268.574 464.41 272.296 463.816 273.193L458.578 279.307C460.951 279.484 465.321 279.178 471.689 278.39C474.236 278.074 477.883 277.153 482.631 275.624C487.148 274.125 490.506 273.239 492.706 272.967C494.558 272.737 496.678 272.769 499.065 273.061C501.568 273.339 503.933 273.928 506.16 274.828C507.26 275.162 508.243 275.98 509.109 277.284C509.962 278.471 510.459 279.644 510.603 280.802C510.789 282.307 510.476 284.05 509.663 286.031C508.851 288.013 507.75 289.09 506.36 289.262C505.087 289.419 503.379 289.395 501.238 289.19C498.04 288.998 495.805 288.981 494.531 289.139C490.479 289.641 485.131 290.597 478.488 292.007C469.312 293.848 462.524 295.041 458.125 295.585C452.567 296.273 448.082 296.123 444.668 295.135C441.37 294.133 439.485 291.722 439.012 287.901C438.653 285.007 439.692 281.528 442.128 277.465C444.549 273.286 447.586 268.854 451.238 264.17L453.347 261.264C454.97 259.183 457.752 256.017 461.693 251.768C465.619 247.402 468.604 243.977 470.647 241.49C472.676 238.888 474.286 236.22 475.475 233.487L447.711 237.1C443.195 237.659 439.773 237.554 437.445 236.784C435.232 236 433.946 234.161 433.588 231.267C433.387 229.646 433.78 228.069 434.765 226.536C435.737 224.888 437.127 223.775 438.937 223.199C443.033 222.104 451.507 220.761 464.358 219.17C477.209 217.579 486.145 217.12 491.165 217.791C492.496 218.097 493.587 218.843 494.44 220.031C495.394 221.088 495.949 222.254 496.107 223.527C496.365 225.611 496.058 227.882 495.187 230.341Z" fill="white"/>
<path d="M495.187 230.341L509.893 236.644L510.097 236.17L510.269 235.684L495.187 230.341ZM486.879 244.418L474 234.924L474 234.924L486.879 244.418ZM472.837 262.026L460.592 251.727L460.551 251.776L460.511 251.824L472.837 262.026ZM463.816 273.193L475.967 283.602L476.608 282.855L477.151 282.034L463.816 273.193ZM458.578 279.307L446.427 268.898L425.85 292.918L457.391 295.263L458.578 279.307ZM482.631 275.624L487.533 290.855L487.603 290.832L487.673 290.809L482.631 275.624ZM499.065 273.061L497.121 288.943L497.21 288.953L497.299 288.963L499.065 273.061ZM506.16 274.828L500.167 289.663L500.827 289.929L501.508 290.136L506.16 274.828ZM509.109 277.284L495.786 286.143L495.944 286.381L496.111 286.613L509.109 277.284ZM501.238 289.19L502.764 273.263L502.481 273.236L502.197 273.219L501.238 289.19ZM478.488 292.007L481.636 307.694L481.723 307.676L481.81 307.658L478.488 292.007ZM444.668 295.135L440.015 310.444L440.117 310.475L440.22 310.505L444.668 295.135ZM442.128 277.465L455.851 285.691L455.912 285.589L455.972 285.486L442.128 277.465ZM451.238 264.17L463.856 274.008L464.026 273.791L464.188 273.568L451.238 264.17ZM453.347 261.264L440.729 251.426L440.559 251.644L440.397 251.867L453.347 261.264ZM461.693 251.768L473.425 262.647L473.507 262.558L473.589 262.468L461.693 251.768ZM470.647 241.49L483.009 251.648L483.139 251.49L483.265 251.328L470.647 241.49ZM475.475 233.487L490.146 239.872L501.418 213.976L473.411 217.621L475.475 233.487ZM447.711 237.1L449.676 252.979L449.726 252.973L449.776 252.966L447.711 237.1ZM437.445 236.784L432.102 251.866L432.262 251.922L432.424 251.976L437.445 236.784ZM434.765 226.536L448.222 235.192L448.391 234.929L448.55 234.66L434.765 226.536ZM438.937 223.199L434.805 207.741L434.439 207.839L434.078 207.954L438.937 223.199ZM491.165 217.791L494.744 202.197L494.021 202.031L493.286 201.932L491.165 217.791ZM494.44 220.031L481.441 229.36L481.961 230.085L482.559 230.747L494.44 220.031ZM495.187 230.341L480.481 224.038C479.155 227.133 477.07 230.759 474 234.924L486.879 244.418L499.758 253.911C503.935 248.246 507.389 242.488 509.893 236.644L495.187 230.341ZM486.879 244.418L474 234.924C470.648 239.472 466.2 245.059 460.592 251.727L472.837 262.026L485.082 272.324C490.95 265.346 495.864 259.195 499.758 253.911L486.879 244.418ZM472.837 262.026L460.511 251.824C455.507 257.87 451.684 262.537 450.481 264.352L463.816 273.193L477.151 282.034C476.913 282.394 476.847 282.451 477.332 281.829C477.702 281.355 478.238 280.68 478.964 279.783C480.408 277.995 482.468 275.483 485.163 272.227L472.837 262.026ZM463.816 273.193L451.665 262.783L446.427 268.898L458.578 279.307L470.729 289.717L475.967 283.602L463.816 273.193ZM458.578 279.307L457.391 295.263C461.563 295.574 467.429 295.039 473.655 294.268L471.689 278.39L469.723 262.511C466.705 262.884 464.323 263.123 462.518 263.249C461.62 263.312 460.932 263.342 460.425 263.352C459.893 263.362 459.704 263.347 459.765 263.351L458.578 279.307ZM471.689 278.39L473.655 294.268C477.739 293.763 482.545 292.461 487.533 290.855L482.631 275.624L477.729 260.394C473.222 261.845 470.733 262.386 469.723 262.511L471.689 278.39ZM482.631 275.624L487.673 290.809C489.721 290.129 491.356 289.639 492.619 289.306C493.245 289.141 493.734 289.026 494.103 288.949C494.284 288.912 494.423 288.886 494.523 288.869C494.624 288.851 494.672 288.845 494.671 288.845L492.706 272.967L490.74 257.088C486.867 257.567 482.239 258.896 477.59 260.439L482.631 275.624ZM492.706 272.967L494.671 288.845C494.915 288.815 495.68 288.766 497.121 288.943L499.065 273.061L501.009 257.18C497.675 256.772 494.201 256.659 490.74 257.088L492.706 272.967ZM499.065 273.061L497.299 288.963C498.421 289.088 499.358 289.336 500.167 289.663L506.16 274.828L512.154 259.992C508.508 258.52 504.715 257.59 500.831 257.159L499.065 273.061ZM506.16 274.828L501.508 290.136C497.956 289.057 496.232 286.814 495.786 286.143L509.109 277.284L522.433 268.424C520.253 265.147 516.563 261.267 510.813 259.519L506.16 274.828ZM509.109 277.284L496.111 286.613C495.79 286.166 494.983 284.857 494.724 282.767L510.603 280.802L526.482 278.836C525.936 274.431 524.133 270.776 522.108 267.954L509.109 277.284ZM510.603 280.802L494.724 282.767C494.59 281.683 494.679 280.861 494.76 280.409C494.839 279.967 494.924 279.805 494.86 279.96L509.663 286.031L524.467 292.103C525.916 288.569 527.116 283.963 526.482 278.836L510.603 280.802ZM509.663 286.031L494.86 279.96C494.979 279.669 495.551 278.343 497.041 276.886C498.731 275.234 501.262 273.771 504.395 273.383L506.36 289.262L508.326 305.14C518.123 303.928 522.719 296.363 524.467 292.103L509.663 286.031ZM506.36 289.262L504.395 273.383C504.676 273.348 504.692 273.368 504.347 273.364C504.023 273.359 503.507 273.334 502.764 273.263L501.238 289.19L499.712 305.117C502.348 305.37 505.378 305.505 508.326 305.14L506.36 289.262ZM501.238 289.19L502.197 273.219C499.043 273.03 495.465 272.901 492.566 273.26L494.531 289.139L496.497 305.018C496.249 305.048 496.163 305.046 496.307 305.041C496.434 305.036 496.671 305.03 497.041 305.033C497.789 305.039 498.851 305.076 500.279 305.162L501.238 289.19ZM494.531 289.139L492.566 273.26C487.859 273.843 482.006 274.903 475.166 276.355L478.488 292.007L481.81 307.658C488.257 306.29 493.099 305.438 496.497 305.018L494.531 289.139ZM478.488 292.007L475.34 276.319C466.226 278.148 459.929 279.24 456.159 279.707L458.125 295.585L460.09 311.464C465.119 310.842 472.398 309.548 481.636 307.694L478.488 292.007ZM458.125 295.585L456.159 279.707C451.651 280.265 449.597 279.905 449.116 279.766L444.668 295.135L440.22 310.505C446.567 312.342 453.484 312.282 460.09 311.464L458.125 295.585ZM444.668 295.135L449.321 279.827C450.407 280.157 452.051 281.013 453.385 282.72C454.635 284.318 454.862 285.701 454.891 285.935L439.012 287.901L423.133 289.867C423.635 293.921 425.041 298.42 428.176 302.43C431.396 306.548 435.631 309.111 440.015 310.444L444.668 295.135ZM439.012 287.901L454.891 285.935C455.041 287.151 454.816 287.822 454.853 287.699C454.869 287.647 454.933 287.449 455.095 287.097C455.257 286.746 455.499 286.279 455.851 285.691L442.128 277.465L428.405 269.238C425.193 274.595 422.137 281.818 423.133 289.867L439.012 287.901ZM442.128 277.465L455.972 285.486C457.955 282.064 460.556 278.241 463.856 274.008L451.238 264.17L438.62 254.332C434.616 259.468 431.144 264.507 428.284 269.443L442.128 277.465ZM451.238 264.17L464.188 273.568L466.296 270.662L453.347 261.264L440.397 251.867L438.289 254.773L451.238 264.17ZM453.347 261.264L465.965 271.102C467.137 269.599 469.518 266.86 473.425 262.647L461.693 251.768L449.961 240.888C445.986 245.174 442.803 248.766 440.729 251.426L453.347 261.264ZM461.693 251.768L473.589 262.468C477.568 258.044 480.739 254.411 483.009 251.648L470.647 241.49L458.286 231.332C456.469 233.542 453.671 236.761 449.797 241.067L461.693 251.768ZM470.647 241.49L483.265 251.328C486.034 247.778 488.366 243.962 490.146 239.872L475.475 233.487L460.805 227.101C460.205 228.479 459.319 229.998 458.03 231.652L470.647 241.49ZM475.475 233.487L473.411 217.621L445.646 221.234L447.711 237.1L449.776 252.966L477.54 249.353L475.475 233.487ZM447.711 237.1L445.745 221.221C444.055 221.431 442.924 221.469 442.25 221.448C441.52 221.426 441.716 221.345 442.466 221.592L437.445 236.784L432.424 251.976C438.188 253.881 444.486 253.622 449.676 252.979L447.711 237.1ZM437.445 236.784L442.788 221.703C444.67 222.369 446.575 223.705 447.934 225.65C449.168 227.414 449.418 228.91 449.467 229.301L433.588 231.267L417.709 233.232C418.595 240.393 422.686 248.53 432.102 251.866L437.445 236.784ZM433.588 231.267L449.467 229.301C449.606 230.429 449.538 231.607 449.258 232.734C448.983 233.837 448.563 234.662 448.222 235.192L434.765 226.536L421.309 217.881C418.548 222.173 416.995 227.463 417.709 233.232L433.588 231.267ZM434.765 226.536L448.55 234.66C448.123 235.385 447.465 236.213 446.533 236.959C445.599 237.706 444.632 238.177 443.795 238.443L438.937 223.199L434.078 207.954C428.488 209.736 423.934 213.402 420.981 218.413L434.765 226.536ZM438.937 223.199L443.068 238.656C445.913 237.896 453.272 236.665 466.324 235.049L464.358 219.17L462.392 203.291C449.741 204.857 440.153 206.312 434.805 207.741L438.937 223.199ZM464.358 219.17L466.324 235.049C479.281 233.445 486.317 233.285 489.044 233.65L491.165 217.791L493.286 201.932C485.973 200.954 475.137 201.714 462.392 203.291L464.358 219.17ZM491.165 217.791L487.586 233.386C486.365 233.105 485.11 232.581 483.95 231.787C482.804 231.004 481.987 230.121 481.441 229.36L494.44 220.031L507.438 210.701C504.488 206.59 500.154 203.438 494.744 202.197L491.165 217.791ZM494.44 220.031L482.559 230.747C481.566 229.646 480.518 227.831 480.228 225.493L496.107 223.527L511.986 221.561C511.381 216.676 509.221 212.53 506.321 209.314L494.44 220.031ZM496.107 223.527L480.228 225.493C480.174 225.053 480.2 224.756 480.214 224.654C480.227 224.56 480.223 224.667 480.106 224.998L495.187 230.341L510.269 235.684C511.773 231.439 512.614 226.635 511.986 221.561L496.107 223.527Z" fill="#191919" mask="url(#path-12-outside-2_1_18)"/>
</svg>
